<?xml version="1.0" encoding="UTF-8" standalone="no"?>
<svg
   version="1.1"
   width="792"
   height="792"
   id="svg12"
   sodipodi:docname="favicon.svg"
   viewBox="-81 0 792 792"
   inkscape:version="1.4.3 (0d15f75, 2025-12-25)"
   xmlns:inkscape="http://www.inkscape.org/namespaces/inkscape"
   xmlns:sodipodi="http://sodipodi.sourceforge.net/DTD/sodipodi-0.dtd"
   xmlns="http://www.w3.org/2000/svg"
   xmlns:svg="http://www.w3.org/2000/svg">
  <defs
     id="defs12" />
  <sodipodi:namedview
     id="namedview12"
     pagecolor="#ffffff"
     bordercolor="#000000"
     borderopacity="0.25"
     inkscape:showpageshadow="2"
     inkscape:pageopacity="0.0"
     inkscape:pagecheckerboard="0"
     inkscape:deskcolor="#d1d1d1"
     showgrid="false"
     inkscape:zoom="1.4103535"
     inkscape:cx="305.95166"
     inkscape:cy="396"
     inkscape:window-width="2256"
     inkscape:window-height="1398"
     inkscape:window-x="-11"
     inkscape:window-y="-11"
     inkscape:window-maximized="1"
     inkscape:current-layer="svg12" />
  <svg
     version="1.1"
     width="612"
     height="792"
     id="svg11">
    <svg
       version="1.1"
       id="Layer_1"
       x="0px"
       y="0px"
       viewBox="0 0 612 792"
       xml:space="preserve"
       width="100%"
       height="100%">
<style
   type="text/css"
   id="style1">
	.st0{fill:#223B73;stroke:#FFFFFF;stroke-width:2;stroke-miterlimit:10;}
	.st1{fill:#FFFFFF;stroke:#FFFFFF;stroke-width:2;stroke-miterlimit:10;}
	.st2{fill:#5F5F5F;stroke:#FFFFFF;stroke-width:2;stroke-miterlimit:10;}
</style>
<path
   class="st0"
   d="m 305.4,253.2 c 0,0 -52.7,82.6 -250.3,36.3 0,0 -75.3,301.4 250.3,488.8 0,0 313.1,-137.1 253.7,-488.8 0,0 -155.9,50.4 -253.7,-36.3 z"
   id="path1" />
<path
   class="st1"
   d="m 305.4,274.4 c 0,0 -86,76.6 -228.1,40.3 0,0 -60.1,256 228.1,443.5 0,0 283.9,-163.3 230.5,-443.5 0,0 -97.4,41.3 -230.5,-40.3 z"
   id="path2" />
<path
   class="st2"
   d="m 169,355.6 v 160.1 c 0,1.5 1.3,2.8 2.8,2.8 h 86.4 c 0.7,0 1.3,-0.6 1.3,-1.3 v -28 c 0,-0.8 -0.6,-1.4 -1.4,-1.4 h -52.5 c -0.9,0 -1.7,-0.8 -1.7,-1.7 V 355.6 c 0,-0.7 -0.6,-1.3 -1.3,-1.3 h -32.4 c -0.6,0 -1.2,0.6 -1.2,1.3 z"
   id="path3" />
<path
   class="st2"
   d="M 320.1,519 H 286 c -0.6,0 -1.1,-0.5 -1.1,-1.1 V 355.8 c 0,-0.6 0.5,-1.1 1.1,-1.1 h 34.1 c 0.6,0 1.1,0.5 1.1,1.1 v 162.1 c 0,0.6 -0.5,1.1 -1.1,1.1 z"
   id="path4" />
<path
   class="st0"
   d="m 282.2,137.6 c 0.9,-1.1 1.2,-3.9 1.7,-5.2 1.8,-4.5 4.3,-8.8 7.3,-12.6 10.3,-13.8 26,-22.2 42.5,-26.2 21,-5.1 42.1,-1.9 63.4,-3.1 9.1,-0.5 18.3,-1.4 27.3,-3.4 5.9,-1.3 16.5,-3.4 20.5,-8.6 -13.2,17.6 -42.1,23.8 -62.2,26.2 -19.5,2.3 -39.3,1.3 -58.3,6.9 -16,4.6 -31.7,12.7 -42.2,26 z"
   id="path5" />
<path
   class="st0"
   d="m 414.3,116.5 c 1.9,-0.1 4.2,-1.3 6,-1.9 5.6,-1.6 11.3,-3 17,-4.3 22.9,-4.9 54.9,-2.2 71.1,-22.4 -1.4,1.8 -2.1,4.6 -3.5,6.6 -3.9,5.5 -9.4,9.8 -15.3,12.9 -11.1,5.8 -24.1,7.7 -36.5,8 -13,0.4 -25.8,0.3 -38.8,1.1 z"
   id="path6" />
<path
   class="st0"
   d="m 373.6,57 c 2.1,-5.9 1.6,-12.4 4.5,-18.4 10.1,-20.7 35.9,-11.4 51.9,-2.1 2.3,1.3 5.2,1.2 7.3,-0.4 10.9,-8.3 44.9,-30.5 59.9,-0.6 0,0 -24.5,-25.2 -63.2,16.1 0.1,0 -46.2,-34.6 -60.4,5.4 z"
   id="path7" />
<path
   class="st0"
   d="m 240.6,215.6 h -97.7 c -1.5,0 -2.7,1.2 -2.7,2.7 v 66.3 c 0,1.4 1.1,2.6 2.5,2.7 11.2,0.8 57.7,3.3 93.2,-7.6 0,0 48.4,-11.4 69.5,-49.4 0,0 23.2,30.6 76.3,47.4 0,0 42.5,16.6 90.5,12.3 1.4,-0.1 2.5,-1.3 2.5,-2.8 V 218 c 0,-1.5 -1.2,-2.4 -2.7,-2.4 H 310.1 v -38.3 c 0,0 -27.2,-26.9 -69.2,0 z"
   id="path8" />
<path
   class="st1"
   d="m 302.6,215.6 h -52.2 v -34.9 c 0,0 26,-18.4 52.2,0 z"
   id="path9" />
<path
   class="st2"
   d="m 407.9,429.7 v 23.7 c 0,0.7 0.6,1.3 1.3,1.3 h 25 c 0.7,0 1.3,0.6 1.3,1.3 0,5.8 0,29.8 0,34.8 0,0.5 -0.3,1 -0.9,1.1 -2,0.5 -7.3,1.8 -12.7,2 -3.9,0.2 -23.8,1.6 -33.3,-13.2 -6.7,-10.5 -7.6,-23.7 -7.6,-35.8 -0.1,-13.3 0.6,-26.7 5,-39.4 5.7,-16.2 21.8,-26.7 38.9,-23.8 8.7,1.5 16.5,5.9 23.3,11.4 0.3,0.3 0.8,0.3 1.1,-0.1 2.6,-2.8 14.3,-15.1 17,-17.9 0.4,-0.4 0.3,-1 -0.1,-1.3 -2.2,-1.7 -9,-6.1 -9.6,-6.5 -19,-11.5 -43,-16.6 -64.1,-7.6 -16.7,7.1 -31.4,21.4 -38.2,38.3 -5.4,13.5 -7.2,28.4 -7.2,42.9 0,11.6 0.9,22.9 4.7,34 9.2,26.4 34.1,42.1 61.3,43.3 19.3,0.8 36.2,-4.5 46.1,-9.1 0.8,-0.4 6,-3.2 7.6,-4.1 0.2,-0.3 0.3,-0.5 0.4,-0.7 V 430 c 0,-0.7 -0.6,-1.3 -1.3,-1.3 h -56.7 c -0.8,-0.2 -1.3,0.3 -1.3,1 z"
   id="path10" />
<path
   class="st0"
   d="m 306.8,742.4 c -0.1,1.1 -0.9,1.2 -0.9,0 -0.5,-8.7 -1,-17.4 -1.5,-26.1 -0.6,-11.5 -1.2,-23.1 -1.7,-34.6 -0.6,-12.6 -1.1,-25.2 -1.4,-37.9 -0.4,-11.9 -0.6,-23.9 -0.6,-35.8 0,-9.5 0.1,-19 0.8,-28.5 0.4,-5 0.3,-11.4 2.7,-16 1.4,-2.8 3.3,-2.2 4.3,-0.3 0.8,1.5 1.2,3.2 1.6,4.8 0.7,3.2 1.1,6.5 1.5,9.7 0.5,5.4 0.8,10.8 1,16.2 0.3,8.1 0.3,16.2 0.3,24.3 -0.1,11.4 -0.4,22.7 -0.8,34.1 -0.6,15.2 -1.3,30.3 -2.2,45.5 -1.1,15 -2.1,29.8 -3.1,44.6 z"
   id="path11" />
</svg>
  </svg>
  <style
     id="style11">@media (prefers-color-scheme: light) { :root { filter: none; } }
@media (prefers-color-scheme: dark) { :root { filter: none; } }
</style>
</svg>
